<svg id="visual" viewBox="0 0 960 540" width="960" height="540" xmlns="http://www.w3.org/2000/svg" xmlns:xlink="http://www.w3.org/1999/xlink" version="1.1"><rect x="0" y="0" width="960" height="540" fill="#6600FF"></rect><path d="M0 447L22.8 440.8C45.7 434.7 91.3 422.3 137 412.2C182.7 402 228.3 394 274 401C319.7 408 365.3 430 411.2 433.2C457 436.3 503 420.7 548.8 423.3C594.7 426 640.3 447 686 449C731.7 451 777.3 434 823 431.8C868.7 429.7 914.3 442.3 937.2 448.7L960 455L960 541L937.2 541C914.3 541 868.7 541 823 541C777.3 541 731.7 541 686 541C640.3 541 594.7 541 548.8 541C503 541 457 541 411.2 541C365.3 541 319.7 541 274 541C228.3 541 182.7 541 137 541C91.3 541 45.7 541 22.8 541L0 541Z" fill="#ffffff" stroke-linecap="round" stroke-linejoin="miter"></path></svg>