<svg id="visual" viewBox="0 0 960 540" width="960" height="540" xmlns="http://www.w3.org/2000/svg" xmlns:xlink="http://www.w3.org/1999/xlink" version="1.1"><rect x="0" y="0" width="960" height="540" fill="#6600FF"></rect><path d="M0 33L8.5 32.5C17 32 34 31 50.8 28.5C67.7 26 84.3 22 101.2 19.8C118 17.7 135 17.3 151.8 18.7C168.7 20 185.3 23 202.2 26.5C219 30 236 34 252.8 35.3C269.7 36.7 286.3 35.3 303.2 32.7C320 30 337 26 353.8 26.5C370.7 27 387.3 32 404.2 34.7C421 37.3 438 37.7 454.8 36.5C471.7 35.3 488.3 32.7 505.2 30C522 27.3 539 24.7 555.8 23C572.7 21.3 589.3 20.7 606.2 22.5C623 24.3 640 28.7 656.8 31.3C673.7 34 690.3 35 707.2 33.8C724 32.7 741 29.3 757.8 27.3C774.7 25.3 791.3 24.7 808.2 24.7C825 24.7 842 25.3 858.8 24.3C875.7 23.3 892.3 20.7 909.2 20C926 19.3 943 20.7 951.5 21.3L960 22L960 0L951.5 0C943 0 926 0 909.2 0C892.3 0 875.7 0 858.8 0C842 0 825 0 808.2 0C791.3 0 774.7 0 757.8 0C741 0 724 0 707.2 0C690.3 0 673.7 0 656.8 0C640 0 623 0 606.2 0C589.3 0 572.7 0 555.8 0C539 0 522 0 505.2 0C488.3 0 471.7 0 454.8 0C438 0 421 0 404.2 0C387.3 0 370.7 0 353.8 0C337 0 320 0 303.2 0C286.3 0 269.7 0 252.8 0C236 0 219 0 202.2 0C185.3 0 168.7 0 151.8 0C135 0 118 0 101.2 0C84.3 0 67.7 0 50.8 0C34 0 17 0 8.5 0L0 0Z" fill="#ffffff" stroke-linecap="round" stroke-linejoin="miter"></path></svg>